<svg width="1600" height="1000" viewBox="0 0 1600 1000" fill="none" xmlns="http://www.w3.org/2000/svg">
<rect width="1600" height="1000" fill="#050505"/>
<rect x="118" y="128" width="1364" height="744" stroke="#C6A55C" stroke-opacity=".22"/>
<ellipse cx="792" cy="762" rx="400" ry="60" fill="#140507"/>
<path d="M404 646L540 550C596 510 672 494 754 496L938 500C1006 502 1060 524 1116 566L1200 628C1226 648 1210 684 1160 684H454C420 684 394 676 392 658L404 646Z" fill="url(#a)"/>
<circle cx="564" cy="688" r="78" fill="#0E0E0E" stroke="#7F652A" stroke-width="4"/>
<circle cx="1042" cy="688" r="78" fill="#0E0E0E" stroke="#7F652A" stroke-width="4"/>
<text x="172" y="228" fill="#F4EFE3" font-family="Georgia, serif" font-size="64">Mazda MX-5 RF</text>
<text x="172" y="284" fill="#C6A55C" font-family="Arial, sans-serif" font-size="18" letter-spacing="8">SOUL RED CRYSTAL / NIGHT ROADSTER</text>
<defs>
<linearGradient id="a" x1="420" y1="500" x2="1110" y2="724" gradientUnits="userSpaceOnUse">
<stop stop-color="#341316"/><stop offset=".44" stop-color="#8C1524"/><stop offset=".72" stop-color="#66111B"/><stop offset="1" stop-color="#1D1D1D"/>
</linearGradient>
</defs>
</svg>
